<svg width="24" height="24" viewBox="0 0 24 24" fill="#006A43" xmlns="http://www.w3.org/2000/svg" class="dist_marketing-btn-icon__AWP8I"><path fill-rule="evenodd" clip-rule="evenodd" d="M24 12C24 5.37258 18.6274 0 12 0C5.37258 0 0 5.37258 0 12C0 18.6274 5.37258 24 12 24C18.6274 24 24 18.6274 24 12ZM13.0033 22.3936C12.574 22.8778 12.2326 23 12 23C11.7674 23 11.426 22.8778 10.9967 22.3936C10.5683 21.9105 10.1369 21.1543 9.75435 20.1342C9.3566 19.0735 9.03245 17.7835 8.81337 16.3341C9.8819 16.1055 10.9934 15.9922 12.1138 16.0004C13.1578 16.0081 14.1912 16.1211 15.1866 16.3341C14.9675 17.7835 14.6434 19.0735 14.2457 20.1342C13.8631 21.1543 13.4317 21.9105 13.0033 22.3936ZM15.3174 15.3396C14.2782 15.1229 13.2039 15.0084 12.1211 15.0004C10.9572 14.9919 9.7999 15.1066 8.68263 15.3396C8.58137 14.4389 8.51961 13.4874 8.50396 12.5H15.496C15.4804 13.4875 15.4186 14.4389 15.3174 15.3396ZM16.1609 16.5779C15.736 19.3214 14.9407 21.5529 13.9411 22.8293C16.6214 22.3521 18.9658 20.9042 20.5978 18.862C19.6345 18.0597 18.4693 17.3939 17.1586 16.9062C16.8326 16.7849 16.4997 16.6754 16.1609 16.5779ZM21.1871 18.0517C20.1389 17.1891 18.8906 16.4837 17.5074 15.969C17.1122 15.822 16.708 15.6912 16.2967 15.5771C16.411 14.5992 16.4798 13.5676 16.4962 12.5H22.9888C22.8973 14.5456 22.2471 16.4458 21.1871 18.0517ZM7.70333 15.5771C7.58896 14.5992 7.52024 13.5676 7.50384 12.5H1.01116C1.10267 14.5456 1.75288 16.4458 2.81287 18.0517C3.91698 17.1431 5.24216 16.4096 6.71159 15.8895C7.0368 15.7744 7.3677 15.6702 7.70333 15.5771ZM3.40224 18.862C5.03424 20.9042 7.37862 22.3521 10.0589 22.8293C9.05934 21.5529 8.26398 19.3214 7.83906 16.5779C7.57069 16.6552 7.3059 16.74 7.04526 16.8322C5.65305 17.325 4.41634 18.0173 3.40224 18.862ZM15.496 11.5H8.50396C8.51961 10.5126 8.58136 9.56113 8.68263 8.66039C9.84251 8.90232 11.0448 9.01653 12.2521 8.99807C13.2906 8.9822 14.3202 8.86837 15.3174 8.66039C15.4186 9.56113 15.4804 10.5126 15.496 11.5ZM9.75435 3.86584C9.3566 4.9265 9.03245 6.21653 8.81337 7.66594C9.92191 7.90306 11.0758 8.01594 12.2369 7.99819C13.2391 7.98287 14.2304 7.87047 15.1866 7.66594C14.9675 6.21653 14.6434 4.9265 14.2457 3.86584C13.8631 2.84566 13.4317 2.08954 13.0033 1.60643C12.574 1.12215 12.2326 1 12 1C11.7674 1 11.426 1.12215 10.9967 1.60643C10.5683 2.08954 10.1369 2.84566 9.75435 3.86584ZM16.4962 11.5C16.4798 10.4324 16.411 9.40077 16.2967 8.42286C16.6839 8.31543 17.0648 8.19328 17.4378 8.05666C18.848 7.54016 20.1208 6.82586 21.1871 5.94826C22.2471 7.55418 22.8973 9.4544 22.9888 11.5H16.4962ZM17.0939 7.11766C18.4298 6.62836 19.6178 5.95419 20.5978 5.13796C18.9658 3.09584 16.6214 1.64793 13.9411 1.17072C14.9407 2.44711 15.736 4.67864 16.1609 7.42207C16.4773 7.33102 16.7886 7.22949 17.0939 7.11766ZM7.33412 7.26641C7.50092 7.32131 7.66929 7.37321 7.83905 7.42207C8.26398 4.67864 9.05934 2.44711 10.0589 1.17072C7.37862 1.64793 5.03423 3.09584 3.40224 5.13796C4.48835 6.04266 5.82734 6.77048 7.33412 7.26641ZM7.02148 8.21629C5.4308 7.69274 3.99599 6.92195 2.81287 5.94826C1.75288 7.55418 1.10267 9.4544 1.01116 11.5H7.50384C7.52024 10.4324 7.58896 9.40077 7.70333 8.42286C7.47376 8.35918 7.24638 8.29031 7.02148 8.21629Z" fill="currentColor"></path></svg>