<svg width="90" height="40" viewBox="0 0 231 106" fill="none" xmlns="http://www.w3.org/2000/svg"><path d="M189.664 42.1049C189.664 31.81 196.179 24.5695 205.445 24.5695C214.711 24.5695 221.33 31.8058 221.33 42.1049C221.33 52.404 214.713 59.2302 205.445 59.2302C196.178 59.2302 189.664 52.0921 189.664 42.1049ZM179.991 42.1049C179.991 57.2951 190.58 68 205.444 68C220.307 68 231 57.2951 231 42.1049C231 26.9147 220.411 15.8039 205.444 15.8039C190.476 15.8039 179.991 26.7139 179.991 42.1049ZM130.61 16.4148L150.567 67.3863H159.936L179.892 16.4148H169.812L155.354 55.7658H155.149L140.691 16.4148H130.61ZM91.8168 40.268C92.4269 30.8873 98.6385 24.5695 107.09 24.5695C114.419 24.5695 119.919 29.2598 120.733 36.2953H103.831C97.8237 36.2953 94.5643 37.0087 92.124 40.2723H91.8168V40.2695V40.268ZM82.1453 41.7973C82.1453 56.9875 92.8365 67.9957 107.598 67.9957C117.576 67.9957 126.331 62.8996 130.098 54.8431L121.954 50.7636C119.104 56.0648 113.605 59.2259 107.598 59.2259C100.366 59.2259 93.8518 53.7197 93.8518 48.4185C93.8518 45.6675 95.6849 44.4415 98.3314 44.4415H130.605V41.6905C130.605 26.3978 120.832 15.7954 106.783 15.7954C92.7341 15.7954 82.1438 26.7053 82.1438 41.793M54.4517 67.3806H63.6156V36.0889C63.6156 29.3609 67.7879 24.5681 73.5943 24.5681C76.0389 24.5681 78.5815 25.384 79.8059 26.5031C80.7232 24.0555 82.1481 21.612 84.2855 19.1643C81.8409 17.1267 77.6686 15.7982 73.5943 15.7982C62.3954 15.7982 54.4517 24.158 54.4517 36.0846V67.3835V67.3806ZM10.1639 33.644V8.76556H25.2322C30.3218 8.76556 33.6836 11.7216 33.6836 16.2069C33.6836 21.303 29.3065 25.1775 20.3474 28.1335C14.2381 30.0686 11.4907 31.7004 10.471 33.6398L10.1639 33.6426V33.644ZM10.1639 58.6207V48.2234C10.1639 43.6356 14.0334 39.1503 19.4301 37.416C24.2169 35.7842 28.1845 34.1524 31.5463 32.4223C36.0258 35.0751 38.7733 39.6586 38.7733 44.4515C38.7733 52.6062 31.0343 58.6207 20.5479 58.6207H10.1639ZM1 67.3863H21.3628C36.8407 67.3863 48.4448 57.7023 48.4448 44.8573C48.4448 37.8218 44.8825 31.5039 38.5685 27.4244C41.8279 24.1608 43.3552 20.3889 43.3552 15.8011C43.3552 6.32214 36.5335 0 26.2519 0H1V67.3863Z" fill="#0B996E"></path><path d="M1.58 102H3.26V95.92H10.16V94.4H3.26V89.52H10.98V88H1.58V102ZM17.5123 102.32C20.3323 102.32 22.8923 100.2 22.8923 96.8C22.8923 93.48 20.3323 91.36 17.5123 91.36C14.6923 91.36 12.1323 93.48 12.1323 96.8C12.1323 100.2 14.6923 102.32 17.5123 102.32ZM13.7723 96.8C13.7723 94.32 15.3123 92.8 17.5123 92.8C19.7123 92.8 21.2523 94.32 21.2523 96.8C21.2523 99.34 19.7123 100.88 17.5123 100.88C15.3123 100.88 13.7723 99.34 13.7723 96.8ZM25.3472 102H26.9472V98.32C26.9472 96.38 27.2872 94.96 28.1672 94.08C28.8672 93.38 29.8872 93.02 31.3272 92.96V91.52C28.7672 91.52 27.4872 92.66 27.0272 94.86H26.9472L26.8872 91.68H25.3472V102ZM33.2188 102H34.8388V96.58C34.8388 94.16 36.1388 92.84 37.7788 92.84C39.3188 92.84 40.3388 93.96 40.3388 95.66V102H41.9388V96.68C41.9388 94.38 43.1188 92.84 44.8988 92.84C46.4388 92.84 47.4588 93.96 47.4588 95.66V102H49.0588V95.14C49.0588 92.88 47.6588 91.36 45.5388 91.36C43.8188 91.36 42.4988 92.36 41.9788 94.18H41.8388C41.4988 92.46 40.2188 91.36 38.4188 91.36C36.6988 91.36 35.4588 92.36 34.9388 94.18H34.8388L34.7188 91.68H33.1988L33.2188 102ZM56.6469 102.32C59.2069 102.32 61.1069 100.74 61.4069 98.38H59.7669C59.4669 99.8 58.3669 100.92 56.6469 100.92C54.6469 100.92 53.1669 99.6 53.1269 97.1H61.4469C61.4669 96.84 61.4869 96.6 61.4869 96.36C61.4869 93.44 59.4069 91.36 56.6069 91.36C53.6069 91.36 51.5269 93.34 51.5269 96.8C51.5269 100.52 53.6669 102.32 56.6469 102.32ZM53.1269 95.98C53.2669 93.86 54.6869 92.76 56.5469 92.76C58.5269 92.76 59.7269 94.04 59.8469 95.98H53.1269ZM63.9409 102H65.5409V98.32C65.5409 96.38 65.8809 94.96 66.7609 94.08C67.4609 93.38 68.4809 93.02 69.9209 92.96V91.52C67.3609 91.52 66.0809 92.66 65.6209 94.86H65.5409L65.4809 91.68H63.9409V102ZM71.7525 88V102H73.3525V88H71.7525ZM76.8498 105.86C78.5898 105.86 79.5698 104.68 80.5098 102.36L84.8898 91.68H83.1298L81.3698 96.3C80.8898 97.52 80.3498 98.86 79.8698 100.18H79.7898C79.3498 98.86 78.8498 97.48 78.4098 96.26L76.7498 91.68H74.9698L78.9298 101.96L78.5498 102.86C78.0298 104.06 77.5298 104.44 76.5098 104.44C76.1698 104.44 75.7698 104.38 75.2898 104.26V105.62C75.8698 105.78 76.3898 105.86 76.8498 105.86Z" fill="var(--marketing-black, #000)"></path><path fill-rule="evenodd" clip-rule="evenodd" d="M159.6 85.4175C159.291 85.1191 158.873 84.9694 158.45 85.0052C158.028 84.9694 157.61 85.1191 157.3 85.4175C156.99 85.7159 156.817 86.1352 156.824 86.572C156.886 87.4497 157.596 88.1288 158.45 88.1288C159.305 88.1288 160.014 87.4497 160.077 86.572C160.083 86.1352 159.91 85.7159 159.6 85.4175ZM151.105 102.702H153.571L153.588 85.3313H150.951V92.314C150.138 90.8468 148.08 90.1268 146.555 90.1268C142.92 90.1268 140.203 92.3865 140.203 96.5616C140.203 100.637 142.972 102.996 146.608 102.996C148.331 103.062 149.968 102.219 150.951 100.759L151.105 102.702ZM102.688 92.2642C101.062 92.2642 100.02 92.8076 100.02 93.7767C100.02 94.7458 101.115 95.1714 102.741 95.3435C105.053 95.5427 108.051 95.9412 108.051 99.1202C108.051 101.384 105.941 102.996 102.715 102.996C100.679 102.996 98.7232 102.544 97 100.732L98.3715 98.9209C99.5229 100.089 101.077 100.74 102.693 100.732C104.091 100.732 105.462 100.307 105.462 99.1654C105.462 98.0243 104.394 97.6484 102.539 97.4764C100.2 97.2771 97.4308 96.5707 97.4308 93.8537C97.4308 91.1366 100.306 90.1268 102.64 90.1268C104.382 90.0911 106.084 90.6588 107.475 91.7389L106.104 93.3555C105.113 92.6152 103.912 92.2317 102.688 92.2642ZM116.716 100.615C118.034 100.615 119.564 100.162 120.351 99.2968L122.057 100.909C120.76 102.326 118.597 102.996 116.667 102.996C112.548 102.996 109.906 100.488 109.906 96.5616C109.906 92.8348 112.649 90.1268 116.614 90.1268C120.303 90.1268 122.843 92.237 122.843 96.4665C122.843 96.8107 122.817 97.1865 122.791 97.5579H112.636C112.856 99.4688 114.395 100.615 116.716 100.615ZM112.658 95.4205C113.058 93.4325 114.711 92.4136 116.614 92.4136C118.79 92.4136 120.109 93.4552 120.259 95.4205H112.658ZM134.967 95.8144C134.967 93.7042 133.745 92.4861 131.587 92.4861C130.634 92.4767 129.718 92.8698 129.054 93.5739C128.39 94.278 128.034 95.2317 128.07 96.2129V102.702H125.433V90.4257H127.824L127.978 92.1374C129.023 90.8546 130.568 90.1176 132.194 90.1268C135.218 90.1268 137.583 91.9653 137.583 95.7918V102.702H134.945L134.967 95.8144ZM142.818 96.5616C142.818 99.0477 144.546 100.615 146.775 100.615C148.94 100.615 150.696 98.8061 150.696 96.5752C150.696 94.3444 148.94 92.5359 146.775 92.5359C144.546 92.5359 142.818 94.0756 142.818 96.5616ZM159.747 102.702H157.109V90.4257H159.747V102.702ZM169.427 92.4861C171.59 92.4861 172.807 93.7042 172.807 95.8145L172.785 102.702H175.423V95.7918C175.423 91.9653 173.058 90.1268 170.033 90.1268C168.407 90.1176 166.86 90.8544 165.813 92.1374L165.66 90.4257H163.273V102.702H165.91V96.2129C165.873 95.2314 166.228 94.2769 166.892 93.5725C167.557 92.8681 168.473 92.4754 169.427 92.4861ZM181.423 92.4363C182.236 90.9691 184.298 90.1268 185.819 90.1268C189.428 90.1268 192.176 92.391 192.176 96.5616C192.176 100.637 189.226 102.996 185.797 102.996C184.219 102.996 182.417 102.326 181.423 100.759L181.274 102.702H178.808V85.3313H181.445L181.423 92.4363ZM182.74 99.4752C181.981 98.7091 181.561 97.6559 181.577 96.5616C181.569 95.4725 181.993 94.4272 182.751 93.6673C183.508 92.9075 184.534 92.4989 185.591 92.5359C187.872 92.5359 189.547 94.0756 189.547 96.5616C189.547 99.0477 187.881 100.615 185.591 100.615C184.529 100.653 183.498 100.241 182.74 99.4752ZM197.688 102.702H195.05V85.3313H197.688V102.702ZM207.17 100.637C204.959 100.637 203.763 99.1971 203.763 97.1096L203.772 90.4257H201.156V97.1322C201.156 100.836 203.354 102.996 206.431 102.996C208.092 103.054 209.686 102.32 210.753 101.008L210.906 102.702H213.267V90.4257H210.652V96.933C210.693 97.9072 210.343 98.8561 209.684 99.5567C209.026 100.257 208.117 100.648 207.17 100.637ZM222.877 100.615C224.195 100.615 225.721 100.162 226.512 99.2968L228.213 100.909C226.916 102.326 224.758 102.996 222.824 102.996C218.709 102.996 216.063 100.488 216.063 96.5616C216.063 92.8348 218.81 90.1268 222.775 90.1268C226.459 90.1268 229 92.237 229 96.4665C229 96.7611 228.981 97.0789 228.961 97.3972C228.958 97.4508 228.955 97.5044 228.952 97.5579H218.784C219.017 99.4688 220.564 100.615 222.877 100.615ZM218.819 95.4205C219.215 93.4325 220.868 92.4136 222.775 92.4136C224.934 92.4136 226.257 93.4552 226.415 95.4205H218.819Z" fill="var(--marketing-black, #000)"></path></svg>